<svg xmlns="http://www.w3.org/2000/svg" viewBox="0 0 1800 1400" width="1800" height="1400" preserveAspectRatio="xMidYMid slice">

    <defs>
        <linearGradient id="bgGrad" x1="0%" y1="0%" x2="100%" y2="100%">
            <stop offset="0%" stop-color="#F6F4F0"/>
            <stop offset="45%" stop-color="#EFEAE1"/>
            <stop offset="75%" stop-color="#E4DDCE"/>
            <stop offset="100%" stop-color="#D9CFBB"/>
        </linearGradient>
        <radialGradient id="vignette" cx="26%" cy="72%" r="70%">
            <stop offset="0%" stop-color="#F6F4F0" stop-opacity="0.92"/>
            <stop offset="100%" stop-color="#F6F4F0" stop-opacity="0"/>
        </radialGradient>
        <linearGradient id="ribbonFade" x1="0%" y1="0%" x2="100%" y2="100%">
            <stop offset="0%" stop-color="#14120F" stop-opacity="0"/>
            <stop offset="40%" stop-color="#14120F" stop-opacity="0.16"/>
            <stop offset="100%" stop-color="#14120F" stop-opacity="0.05"/>
        </linearGradient>
    </defs>
    <rect width="1800" height="1400" fill="url(#bgGrad)"/>
    
<circle cx="1660" cy="200" r="440" fill="none" stroke="#14120F" stroke-width="1" opacity="0.13"/>
<circle cx="1660" cy="200" r="300" fill="none" stroke="#14120F" stroke-width="1" opacity="0.09"/>
<line x1="1240" y1="80" x2="1240" y2="1320" stroke="#14120F" stroke-width="0.6" opacity="0.05"/>
<line x1="1390" y1="80" x2="1390" y2="1320" stroke="#14120F" stroke-width="0.6" opacity="0.05"/>
<line x1="1540" y1="80" x2="1540" y2="1320" stroke="#14120F" stroke-width="0.6" opacity="0.05"/>
<line x1="1690" y1="80" x2="1690" y2="1320" stroke="#14120F" stroke-width="0.6" opacity="0.05"/>
<path d="M 936.0 -40
        C 720.0 196.00000000000003, 1260.0 308.0, 1080.0 560.0
        C 900.0 784.0000000000001, 1476.0 840.0, 1332.0 1120.0
        C 1224.0 1316.0, 1548.0 1400.0, 1440.0 1540.0000000000002" fill="none" stroke="url(#ribbonFade)" stroke-width="150" stroke-linecap="round"/>

    <path d="M 990.0000000000001 -60
        C 756.0 224.0, 1296.0 336.0, 1116.0 588.0
        C 936.0 812.0, 1512.0 868.0, 1368.0 1148.0
        C 1260.0 1344.0, 1584.0 1428.0, 1476.0 1568.0000000000002" fill="none" stroke="#14120F" stroke-width="1.4" opacity="0.55" stroke-linecap="round"/>

    <path d="M 1080.0 -60
        C 846.0 210.0, 1386.0 350.0, 1206.0 602.0
        C 1026.0 826.0, 1602.0 882.0, 1458.0 1162.0
        C 1350.0 1358.0, 1674.0 1442.0, 1566.0 1581.9999999999998" fill="none" stroke="#14120F" stroke-width="1" opacity="0.35" stroke-linecap="round"/>

    <path d="M 900.0 -60
        C 666.0 238.00000000000003, 1206.0 322.0, 1026.0 574.0
        C 846.0 797.9999999999999, 1422.0 854.0, 1278.0 1134.0
        C 1170.0 1330.0, 1494.0 1414.0, 1386.0 1554.0000000000002" fill="none" stroke="#14120F" stroke-width="1" opacity="0.28" stroke-linecap="round"/>
<circle cx="1340" cy="1180" r="1.4" fill="#14120F" opacity="0.10"/>
<circle cx="1340" cy="1222" r="1.4" fill="#14120F" opacity="0.10"/>
<circle cx="1340" cy="1264" r="1.4" fill="#14120F" opacity="0.10"/>
<circle cx="1340" cy="1306" r="1.4" fill="#14120F" opacity="0.10"/>
<circle cx="1340" cy="1348" r="1.4" fill="#14120F" opacity="0.10"/>
<circle cx="1382" cy="1180" r="1.4" fill="#14120F" opacity="0.10"/>
<circle cx="1382" cy="1222" r="1.4" fill="#14120F" opacity="0.10"/>
<circle cx="1382" cy="1264" r="1.4" fill="#14120F" opacity="0.10"/>
<circle cx="1382" cy="1306" r="1.4" fill="#14120F" opacity="0.10"/>
<circle cx="1382" cy="1348" r="1.4" fill="#14120F" opacity="0.10"/>
<circle cx="1424" cy="1180" r="1.4" fill="#14120F" opacity="0.10"/>
<circle cx="1424" cy="1222" r="1.4" fill="#14120F" opacity="0.10"/>
<circle cx="1424" cy="1264" r="1.4" fill="#14120F" opacity="0.10"/>
<circle cx="1424" cy="1306" r="1.4" fill="#14120F" opacity="0.10"/>
<circle cx="1424" cy="1348" r="1.4" fill="#14120F" opacity="0.10"/>
<circle cx="1466" cy="1180" r="1.4" fill="#14120F" opacity="0.10"/>
<circle cx="1466" cy="1222" r="1.4" fill="#14120F" opacity="0.10"/>
<circle cx="1466" cy="1264" r="1.4" fill="#14120F" opacity="0.10"/>
<circle cx="1466" cy="1306" r="1.4" fill="#14120F" opacity="0.10"/>
<circle cx="1466" cy="1348" r="1.4" fill="#14120F" opacity="0.10"/>
<circle cx="1508" cy="1180" r="1.4" fill="#14120F" opacity="0.10"/>
<circle cx="1508" cy="1222" r="1.4" fill="#14120F" opacity="0.10"/>
<circle cx="1508" cy="1264" r="1.4" fill="#14120F" opacity="0.10"/>
<circle cx="1508" cy="1306" r="1.4" fill="#14120F" opacity="0.10"/>
<circle cx="1508" cy="1348" r="1.4" fill="#14120F" opacity="0.10"/>
<circle cx="1550" cy="1180" r="1.4" fill="#14120F" opacity="0.10"/>
<circle cx="1550" cy="1222" r="1.4" fill="#14120F" opacity="0.10"/>
<circle cx="1550" cy="1264" r="1.4" fill="#14120F" opacity="0.10"/>
<circle cx="1550" cy="1306" r="1.4" fill="#14120F" opacity="0.10"/>
<circle cx="1550" cy="1348" r="1.4" fill="#14120F" opacity="0.10"/>
<circle cx="1592" cy="1180" r="1.4" fill="#14120F" opacity="0.10"/>
<circle cx="1592" cy="1222" r="1.4" fill="#14120F" opacity="0.10"/>
<circle cx="1592" cy="1264" r="1.4" fill="#14120F" opacity="0.10"/>
<circle cx="1592" cy="1306" r="1.4" fill="#14120F" opacity="0.10"/>
<circle cx="1592" cy="1348" r="1.4" fill="#14120F" opacity="0.10"/>
<circle cx="1634" cy="1180" r="1.4" fill="#14120F" opacity="0.10"/>
<circle cx="1634" cy="1222" r="1.4" fill="#14120F" opacity="0.10"/>
<circle cx="1634" cy="1264" r="1.4" fill="#14120F" opacity="0.10"/>
<circle cx="1634" cy="1306" r="1.4" fill="#14120F" opacity="0.10"/>
<circle cx="1634" cy="1348" r="1.4" fill="#14120F" opacity="0.10"/>
<circle cx="1676" cy="1180" r="1.4" fill="#14120F" opacity="0.10"/>
<circle cx="1676" cy="1222" r="1.4" fill="#14120F" opacity="0.10"/>
<circle cx="1676" cy="1264" r="1.4" fill="#14120F" opacity="0.10"/>
<circle cx="1676" cy="1306" r="1.4" fill="#14120F" opacity="0.10"/>
<circle cx="1676" cy="1348" r="1.4" fill="#14120F" opacity="0.10"/>
<rect width="1800" height="1400" fill="url(#vignette)"/>
<rect x="34" y="34" width="1732" height="1332" fill="none" stroke="#14120F" stroke-width="1" opacity="0.12"/>
<text x="1736" y="1344" text-anchor="end" font-family="Georgia, serif" font-size="15"
                     letter-spacing="3" fill="#14120F" opacity="0.3">SS26 — THE EDIT</text>
</svg>