<svg xmlns="http://www.w3.org/2000/svg" viewBox="0 0 900 1200" width="900" height="1200">
  <defs>
    <linearGradient id="g" x1="0%" y1="0%" x2="100%" y2="100%">
      <stop offset="0%" stop-color="#F4F2EE"/>
      <stop offset="100%" stop-color="#E4DDCE"/>
    </linearGradient>
  </defs>
  <rect width="900" height="1200" fill="url(#g)"/>
  <circle cx="760" cy="140" r="220" fill="none" stroke="#14120F" stroke-width="1" opacity="0.10"/>
  <g transform="translate(450.0,560.0) scale(1.6)"><path d="M -30 -140 L 30 -140 L 42 -80 L 60 220 L -60 220 L -42 -80 Z" fill="none" stroke="#14120F" stroke-width="2.2"/>
    <path d="M -30 -140 C -30 -108, 30 -108, 30 -140" fill="none" stroke="#14120F" stroke-width="2.2"/>
    <path d="M -30 -140 L -70 -100 L -50 -70 L -18 -100" fill="none" stroke="#14120F" stroke-width="1.6"/>
    <path d="M 30 -140 L 70 -100 L 50 -70 L 18 -100" fill="none" stroke="#14120F" stroke-width="1.6"/>
    <path d="M -10 -60 L -20 200 M 10 -60 L 20 200" fill="none" stroke="#14120F" stroke-width="1" opacity="0.5"/></g>
  <text x="450.0" y="1110" text-anchor="middle" font-family="Georgia, serif" font-size="34" letter-spacing="2" fill="#14120F" opacity="0.85">Clothing</text>
</svg>